HIERARCHY
ROOT Hips
{
	OFFSET	0.00	0.00	0.00
	CHANNELS 6 Xposition Yposition Zposition Zrotation Xrotation Yrotation
	JOINT Chest
	{
		OFFSET	 0.000000	 4.570000	 0.000000
		CHANNELS 3 Zrotation Xrotation Yrotation
		JOINT Neck
		{
			OFFSET	 0.000000	 17.620001	 0.000000
			CHANNELS 3 Zrotation Xrotation Yrotation
			JOINT Head
			{
				OFFSET	 0.000000	 5.190000	 0.000000
				CHANNELS 3 Zrotation Xrotation Yrotation
				End Site 
				{
					OFFSET	 0.000000	 4.140008	 0.000000
				}
			}
		}
		JOINT LeftCollar
		{
			OFFSET	 1.060000	 15.330000	 01.760000
			CHANNELS 3 Zrotation Xrotation Yrotation
			JOINT LeftShoulder
			{
				OFFSET	 5.00000	 0.000000	 0.000000
				CHANNELS 3 Zrotation Xrotation Yrotation
				JOINT LeftElbow
				{
					OFFSET	 0.000000	-11.90000	 0.000000
					CHANNELS 3 Zrotation Xrotation Yrotation
					JOINT LeftWrist
					{
						OFFSET	 0.000000	-9.520000	 0.000000
						CHANNELS 3 Zrotation Xrotation Yrotation
						End Site 
						{
							OFFSET	 0.000000	-7.0	 0.000000
						}
					}
				}
			}
		}
		JOINT RightCollar
		{
			OFFSET	-1.060000	 15.330000	 01.760000
			CHANNELS 3 Zrotation Xrotation Yrotation
			JOINT RightShoulder
			{
				OFFSET	-5.000000	 0.000000	 0.000000
				CHANNELS 3 Zrotation Xrotation Yrotation
				JOINT RightElbow
				{
					OFFSET	 0.000000	-11.900000	 0.000000
					CHANNELS 3 Zrotation Xrotation Yrotation
					JOINT RightWrist
					{
						OFFSET	 0.000000	-9.520000	 0.000000
						CHANNELS 3 Zrotation Xrotation Yrotation
						End Site 
						{
							OFFSET	 0.000000	-7.0	 0.000000
						}
					}
				}
			}
		}
	}
	JOINT LeftHip
	{
		OFFSET	 3.430000	 0.000000	 0.000000
		CHANNELS 3 Zrotation Xrotation Yrotation
		JOINT LeftKnee
		{
			OFFSET	 0.000000	-19.0	 0.000000
			CHANNELS 3 Zrotation Xrotation Yrotation
			JOINT LeftAnkle
			{
				OFFSET	 0.000000	-15.00000	 0.000000
				CHANNELS 3 Zrotation Xrotation Yrotation
				End Site 
				{
					OFFSET	 0.000000	-3.0	 0.000000
				}
			}
		}
	}
	JOINT RightHip
	{
		OFFSET	-3.430000	 0.000000	 0.000000
		CHANNELS 3 Zrotation Xrotation Yrotation
		JOINT RightKnee
		{
			OFFSET	 0.000000	-19.0	 0.000000
			CHANNELS 3 Zrotation Xrotation Yrotation
			JOINT RightAnkle
			{
				OFFSET	 0.000000	-15.00000	 0.000000
				CHANNELS 3 Zrotation Xrotation Yrotation
				End Site 
				{
					OFFSET	 0.000000	-3.0	 0.000000
				}
			}
		}
	}
}
MOTION
Frames: 16
Frame Time: 0.033333333
32.044516	24.407086	6.166992	181.400011	197.913427	2.527083	-11.624592	27.385095	8.260256	-354.407469	-344.408892	-0.304805	7.368525	-12.830341	-13.097928	-27.076281	18.919361	41.014021	92.281604	-11.330944	35.897930	-349.519567	340.704743	55.563290	-358.292808	-323.418054	57.138694	-59.805162	20.976070	29.245626	24.768219	-111.686212	103.415919	110.526910	-159.957849	127.904291	-158.150512	145.544019	108.768929	61.215220	-49.653862	71.015258	-306.719636	-303.276729	-41.324580	351.611408	-330.065713	-15.860399	-50.591568	-20.994959	-37.165111	-8.703332	29.605516	2.857594	-259.899482	-332.707057	-35.032572	
33.792422	24.238806	6.346159	178.842583	-162.403767	1.154591	-11.589162	26.246506	8.108543	-357.382071	-344.117188	-0.171105	7.431156	-13.473860	-14.194269	-30.071662	18.672427	41.734094	92.447769	-13.391818	35.970955	-345.405635	339.522110	64.636264	-344.089812	-323.209023	49.465147	-58.012476	21.261130	27.898935	29.097834	-109.306294	108.066656	104.830984	-159.317573	132.824322	-144.316224	150.699282	103.340643	57.201695	-46.455612	66.955195	-315.585139	-306.507271	-31.773090	354.198383	-328.082090	-14.933313	-235.448663	208.645307	132.472444	-16.818401	40.991789	8.883942	-283.491502	-324.821658	-17.622041	
35.717349	24.065941	6.482778	177.569860	-162.557186	-0.630372	349.293651	-335.508035	7.679824	359.689226	-343.386576	-0.007301	7.437658	-13.755902	-14.316398	-32.862850	18.349672	42.736533	91.067497	-15.340603	35.854234	-339.300019	337.838304	72.766054	-330.281465	-327.237059	43.214544	-56.484614	21.407612	27.378360	36.585549	-106.927046	116.766930	101.352976	-156.069285	118.019436	-159.710773	160.454171	105.669683	-304.429856	318.472451	65.276171	-323.355681	-311.234554	-23.246623	353.832367	-325.845941	-16.888151	119.211564	-144.683142	122.727472	-23.993071	50.452492	16.419916	-291.918234	-325.377280	-10.960163	
37.692011	23.901038	6.587243	176.171133	-162.279689	-1.633967	-10.209623	22.101450	7.303451	358.017169	-342.206483	0.145581	7.079379	-14.149137	-14.973043	325.399000	-341.829293	43.252841	89.059633	-18.616278	35.695145	-330.950195	338.000235	69.337797	-321.816593	-329.488480	39.802585	307.045436	-338.172874	25.485057	236.542504	282.910772	-42.906212	94.290868	-154.910243	117.613177	-151.967497	168.783177	103.687084	-306.595900	323.406252	62.701893	-331.055927	-317.151410	-15.350508	345.477871	-321.127400	-17.452955	112.902614	-141.258130	113.176266	-28.852067	57.428734	22.714357	-299.095478	-327.852240	-8.062841	
39.611638	23.804089	6.653799	174.771518	-161.700845	-2.512474	-9.888450	19.373819	6.942213	356.774238	-340.905879	0.327908	6.621306	-15.252915	-15.549777	322.722359	-342.021986	43.699628	87.879056	-22.295639	35.731734	-321.765859	337.842348	64.797668	-314.285846	-331.522046	36.873721	310.671801	-337.722410	23.140911	267.720896	283.020082	-9.001529	88.008269	-155.991681	117.474155	211.913457	180.101141	103.392477	-309.500178	328.477776	58.934600	-338.135390	-323.780710	-8.994970	333.919716	-318.254076	-12.613676	107.723534	-139.465438	105.647901	-34.216788	62.804858	29.320311	-306.755562	-331.845906	-4.533743	
41.366488	23.788397	6.610751	173.532494	-161.916747	-4.647783	-9.656010	17.609894	6.713229	355.118901	-340.508307	0.549603	6.547934	-16.407644	-15.351799	319.092659	-342.031767	43.287354	85.893745	-23.525923	35.416996	-311.746573	336.364404	63.371272	-308.837459	-333.707898	35.386079	313.104469	-337.378633	20.975365	-70.623772	-73.570950	14.994230	82.833049	-157.138811	118.959639	213.328044	192.982277	105.121540	-312.767058	335.183027	54.007288	-343.162300	-330.406786	-4.932462	326.471859	-317.189496	-8.117910	105.201733	-137.129062	102.170024	-43.278369	67.406350	39.382583	45.900881	22.639722	1.054254	
42.872340	23.768343	6.463769	172.010605	-163.447105	-7.957571	-10.034035	17.111640	6.693620	353.837011	-340.521230	0.704288	6.734957	-17.561854	-14.977211	315.051291	-341.904179	42.217743	83.461002	-22.940139	34.826041	-300.495940	334.316741	63.984261	-306.530057	-335.910743	36.231967	315.323187	-337.138046	19.497891	-61.523556	-67.676087	27.687882	79.014549	-158.959234	118.451910	213.741434	203.708474	108.102794	-315.911431	341.708863	48.666466	-344.289746	-333.714865	-3.693580	327.460324	-317.103572	-9.629667	104.166256	-134.185415	101.037387	-51.761477	70.115817	48.593434	43.905981	20.669117	2.927139	
44.137526	23.647043	6.295712	170.258825	-165.497282	-11.324496	-10.931658	16.998290	6.767913	-6.307568	19.682431	0.744055	-353.519435	341.071716	-15.915512	312.307249	-341.802273	41.381858	80.019905	-23.872581	34.046013	-287.588686	331.207065	62.724098	54.257163	22.382350	37.889664	318.613836	-336.866997	17.988093	-59.434938	-59.748137	34.624745	76.234820	-161.643731	116.863003	214.917210	211.103547	111.245289	40.765208	-11.483778	42.587000	14.844704	23.595972	-2.786609	338.306883	-319.382478	-14.799302	102.785048	-131.566351	99.551521	-62.103773	71.565969	59.422760	41.612441	20.092247	4.879792	
45.286113	23.373241	6.144327	169.181623	-167.128468	-14.335600	-11.242283	16.499109	6.727165	-5.999081	19.955497	0.733495	-353.877118	339.975471	-16.921803	311.237013	-341.756729	41.020677	75.930760	-26.812938	33.105168	-273.646440	326.286351	61.013723	55.236852	21.411944	38.588314	322.415109	-336.549830	15.883893	-59.891502	-51.477505	38.721202	75.066550	-163.890548	113.607886	215.419926	215.849353	114.076259	38.987238	-4.920656	37.639751	-346.618594	-339.182977	-1.843832	-17.350779	37.683297	-15.891452	101.130722	-129.518524	97.759286	-72.935832	73.220261	71.078143	37.654979	19.418733	7.105764	
46.362802	22.978997	6.017169	169.017261	-168.301157	-16.927235	-10.575019	15.920598	6.589990	-5.815995	20.000651	0.714159	-354.467110	339.366081	-17.923459	311.090273	-341.567615	40.205603	-286.827147	329.695053	32.507144	101.428381	-40.509800	63.480842	54.155540	21.465334	39.191481	326.419950	-336.172804	12.334546	-61.540720	-44.549884	40.747856	76.018077	-164.548787	108.074046	216.957456	219.669109	117.407288	39.070020	1.691445	33.516116	-349.251140	-342.573565	-0.816163	-23.126339	35.442411	-11.243821	99.826518	-128.104893	96.386602	-85.343806	75.303803	84.596057	34.211416	18.278875	9.271403	
47.218012	22.547213	5.883966	168.458155	-169.670787	-18.610272	-10.218241	15.969815	6.568148	-5.247683	19.484543	0.593510	-355.571114	339.332777	-19.722384	311.765643	-340.990655	37.819282	-287.357771	325.745291	32.695015	119.361937	-48.654605	73.248996	51.977752	22.460378	39.123200	332.194656	-335.743923	6.001793	-65.407768	-39.044550	40.741609	78.662460	-162.885554	97.984962	227.364683	221.672445	121.812117	38.721755	7.320992	29.077576	-351.441281	-345.869732	-0.140709	-23.003928	32.750271	-9.082631	97.724575	-127.836781	93.838908	-99.262692	75.470836	99.256279	33.343364	18.099000	10.133781	
47.836394	22.130424	5.725454	167.455333	-171.390697	-19.554491	-10.413124	16.940549	6.709411	-3.985966	17.749399	0.323488	-357.438269	339.778570	-22.125579	313.303801	-340.089617	33.874988	-286.310703	320.114265	33.809289	142.384524	-55.381901	91.412592	48.684436	23.254763	39.704746	339.967192	-335.562622	-2.723022	287.720208	324.685246	38.669392	82.310464	-161.802751	91.962880	237.951900	223.449127	125.869236	37.614459	11.345150	25.218859	7.601893	11.956143	0.167182	-23.901386	31.139846	-4.428575	95.405787	-128.017030	90.929384	-109.630844	73.623707	110.023792	40.366226	20.787118	9.771310	
48.358634	21.748550	5.582280	167.139642	-173.123297	-20.152203	-10.202174	18.848489	6.922862	-2.226974	14.595265	0.050138	-359.694527	340.591909	-24.230544	315.646938	-338.978181	28.406385	-284.807215	312.352520	35.963346	170.127495	-58.096044	116.753065	44.715639	22.818304	41.563800	348.981157	-335.903175	-12.488248	278.078741	326.484208	34.998390	87.612289	-162.574193	90.313779	246.450895	225.752868	130.326891	37.425908	14.332872	22.571772	7.208665	10.855534	0.297345	-22.540979	30.533882	-2.222291	94.686179	-127.717731	90.123797	-116.227509	71.948733	116.995400	35.287085	17.772538	9.750345	
48.791335	21.404223	5.492577	167.236180	-174.544100	-20.070295	-9.628423	21.098274	7.091000	-359.948282	-349.135601	-0.011645	357.592577	341.880574	-26.399758	319.458539	-337.673150	20.590713	-284.262111	303.922755	38.789856	-339.186392	234.873424	-33.789833	44.244120	24.325382	39.976495	358.351438	-336.780800	-21.988660	267.379140	327.981058	31.358607	94.453754	-165.680727	90.802452	-287.760998	311.215621	-43.363992	38.017556	16.086184	21.177479	7.004300	10.185448	0.370502	-20.780331	31.221378	-2.523796	94.660197	-127.249645	90.220069	-120.928947	70.330961	122.049057	35.432398	16.952223	8.174830	
49.087354	21.116553	5.486580	167.369410	-175.466162	-19.056909	-8.735967	23.253703	7.129717	2.287729	7.277098	0.218661	354.767228	343.545419	-28.624700	324.708386	-336.499669	10.369080	-283.898717	296.294308	42.331124	-315.981317	227.065507	-12.655015	46.427236	25.805323	37.211853	-353.564186	-337.922425	-29.866227	258.901619	330.537297	29.703208	101.566939	-170.562837	91.064068	-285.989739	307.732416	-35.347888	38.741194	16.211626	21.279338	7.015394	10.003198	0.392726	-21.119392	32.646063	-4.108594	94.499660	-127.148708	90.051793	-123.503204	68.755530	124.870389	36.814725	16.142793	5.753118	
49.237563	20.927161	5.557419	167.495836	-176.021593	-17.289747	-7.487359	25.482586	7.012546	3.500723	3.717466	0.564525	352.326692	345.415279	-29.570101	331.335992	-335.894405	-0.662756	77.165590	-71.040864	47.479048	60.261979	-141.228077	0.954887	48.867273	26.518079	34.966145	-347.208449	-339.072574	-36.000741	253.693955	333.883570	29.939300	108.057292	-176.196841	91.178788	-291.516810	303.204984	-28.400510	39.116001	14.611832	22.918516	7.665910	10.752071	0.325540	-23.111196	34.582357	-6.147724	94.356431	-127.679455	89.729511	-124.507556	67.341217	126.018216	40.622464	15.697661	3.794470	
